<svg xmlns="http://www.w3.org/2000/svg" xmlns:xlink="http://www.w3.org/1999/xlink" width="44" height="44" viewBox="0 0 44 44">
  <defs>
    <rect id="rect-1" width="44" height="44" x="0" y="0"/>
    <mask id="mask-2" maskContentUnits="userSpaceOnUse" maskUnits="userSpaceOnUse">
      <rect width="44" height="44" x="0" y="0" fill="black"/>
      <use fill="white" xlink:href="#rect-1"/>
    </mask>
  </defs>
  <g>
    <use fill="none" xlink:href="#rect-1"/>
    <g mask="url(#mask-2)">
      <path fill="rgb(187,225,250)" fill-rule="evenodd" d="M43.17559814 20.46264648l-7.07983398-3.53283691 7.07983398-3.53320312c1.26635743-.63183594 1.2677002-2.44189454 0-3.07470704L22.8546753.18127441c-.48504638-.24169921-1.05548095-.24169921-1.54052734 0L.9932251 10.32189941c-1.26635742.63220215-1.2677002 2.44226075 0 3.07470704l7.07983398 3.53320312L.9932251 20.46264648c-1.26635742.63208008-1.2677002 2.44177247 0 3.07458497l7.07983398 3.53320312L.9932251 30.60327148c-1.26635742.63208008-1.2677002 2.44189454 0 3.07458497l20.32092285 10.14074707c.48400879.241333 1.0545044.24230957 1.54052734 0l20.32092285-10.14074707c1.26635743-.63208008 1.2677002-2.44177247 0-3.07458497l-7.07983398-3.53283691 7.07983398-3.53320312c1.26635743-.63183594 1.2677002-2.44189454 0-3.07458497zM22.08447266 3.64025878L38.55450439 11.859375l-16.47003173 8.21887207L5.61437988 11.859375l16.47009278-8.21911621zm0 26.57873536L5.61437988 22.00012207l6.30957032-3.14880371 9.39025878 4.68591309c.48431397.24145507 1.05444336.24243164 1.54046631 0l9.3902588-4.6859131 6.3095703 3.14880372-16.47003173 8.21887207zm0 10.140625l16.47003173-8.21887207-6.3095703-3.14880371-9.3902588 4.68591309c-.48602295.24243164-1.05615234.24145507-1.5404663 0l-9.3902588-4.6859131-6.3095703 3.14880372 16.47009277 8.21887207z"/>
    </g>
  </g>
</svg>
